<svg width="87" height="86" viewBox="0 0 87 86" fill="none" xmlns="http://www.w3.org/2000/svg">
<path fill-rule="evenodd" clip-rule="evenodd" d="M43.5 29.5625C44.2211 29.5625 44.9126 29.8456 45.4224 30.3497C45.9323 30.8537 46.2188 31.5372 46.2188 32.25V40.3125H54.375C55.0961 40.3125 55.7876 40.5956 56.2974 41.0997C56.8073 41.6037 57.0938 42.2872 57.0938 43C57.0938 43.7128 56.8073 44.3963 56.2974 44.9004C55.7876 45.4044 55.0961 45.6875 54.375 45.6875H46.2188V53.75C46.2188 54.4628 45.9323 55.1463 45.4224 55.6503C44.9126 56.1544 44.2211 56.4375 43.5 56.4375C42.7789 56.4375 42.0874 56.1544 41.5776 55.6503C41.0677 55.1463 40.7812 54.4628 40.7812 53.75V45.6875H32.625C31.9039 45.6875 31.2124 45.4044 30.7026 44.9004C30.1927 44.3963 29.9062 43.7128 29.9062 43C29.9062 42.2872 30.1927 41.6037 30.7026 41.0997C31.2124 40.5956 31.9039 40.3125 32.625 40.3125H40.7812V32.25C40.7812 31.5372 41.0677 30.8537 41.5776 30.3497C42.0874 29.8456 42.7789 29.5625 43.5 29.5625Z" fill="url(#paint0_linear_198_4192)"/>
<path d="M55.8609 13.5082L50.853 8.43418L54.7408 4.68243L58.1229 8.1063L62.9623 8.04718C65.0571 8.02267 67.1357 8.41245 69.0759 9.1936C71.0161 9.97475 72.7787 11.1315 74.26 12.5958C75.7414 14.0601 76.9116 15.8025 77.7018 17.7204C78.492 19.6382 78.8863 21.693 78.8615 23.7637L78.8072 28.5474L82.2654 31.8907C83.7632 33.3375 84.9534 35.0656 85.7659 36.9735C86.5785 38.8815 86.9971 40.9307 86.9971 43.0008C86.9971 45.0709 86.5785 47.1201 85.7659 49.0281C84.9534 50.936 83.7632 52.6641 82.2654 54.1109L78.8017 57.4542L78.8615 62.2379C78.8863 64.3086 78.492 66.3634 77.7018 68.2812C76.9116 70.1991 75.7414 71.9415 74.26 73.4058C72.7787 74.8701 71.0161 76.0268 69.0759 76.808C67.1357 77.5891 65.0571 77.9789 62.9623 77.9544L58.1229 77.9007L54.7408 81.3192C53.2772 82.7998 51.5289 83.9762 49.5988 84.7795C47.6687 85.5827 45.5957 85.9965 43.5015 85.9965C41.4073 85.9965 39.3342 85.5827 37.4041 84.7795C35.474 83.9762 33.7258 82.7998 32.2622 81.3192L28.88 77.8953L24.0407 77.9544C21.9459 77.9789 19.8673 77.5891 17.9271 76.808C15.9869 76.0268 14.2243 74.8701 12.743 73.4058C11.2616 71.9415 10.0914 70.1991 9.30117 68.2812C8.51094 66.3634 8.11663 64.3086 8.14142 62.2379L8.1958 57.4542L4.73755 54.1109C3.23973 52.6641 2.04958 50.936 1.23701 49.0281C0.424442 47.1201 0.00585937 45.0709 0.00585938 43.0008C0.00585937 40.9307 0.424442 38.8815 1.23701 36.9735C2.04958 35.0656 3.23973 33.3375 4.73755 31.8907L8.20123 28.5474L8.14142 23.7637C8.11663 21.693 8.51094 19.6382 9.30117 17.7204C10.0914 15.8025 11.2616 14.0601 12.743 12.5958C14.2243 11.1315 15.9869 9.97475 17.9271 9.1936C19.8673 8.41245 21.9459 8.02267 24.0407 8.04718L28.88 8.10093L32.2622 4.68243C33.7258 3.20183 35.474 2.02535 37.4041 1.22212C39.3342 0.418898 41.4073 0.00512695 43.5015 0.00512695C45.5957 0.00512695 47.6687 0.418898 49.5988 1.22212C51.5289 2.02535 53.2772 3.20183 54.7408 4.68243L50.853 8.43418C49.8958 7.46553 48.7523 6.69582 47.4898 6.17031C46.2273 5.6448 44.8713 5.37408 43.5015 5.37408C42.1316 5.37408 40.7756 5.6448 39.5131 6.17031C38.2506 6.69582 37.1072 7.46553 36.15 8.43418L31.1475 13.5082L23.97 13.4222C22.6007 13.407 21.2422 13.6626 19.9742 14.1737C18.7062 14.6849 17.5544 15.4414 16.5863 16.3988C15.6183 17.3563 14.8536 18.4953 14.3371 19.7489C13.8207 21.0026 13.5629 22.3456 13.5789 23.6992L13.6659 30.7834L8.53292 35.7338C7.55301 36.68 6.77435 37.8103 6.24273 39.0583C5.71111 40.3063 5.43724 41.6467 5.43724 43.0008C5.43724 44.3549 5.71111 45.6953 6.24273 46.9433C6.77435 48.1913 7.55301 49.3216 8.53292 50.2678L13.6659 55.2128L13.5789 62.3078C13.5636 63.6613 13.8221 65.0043 14.3392 66.2577C14.8564 67.5111 15.6217 68.6497 16.5902 69.6066C17.5587 70.5635 18.711 71.3194 19.9792 71.8299C21.2475 72.3404 22.6061 72.5953 23.9754 72.5794L31.142 72.4934L36.15 77.5674C37.1072 78.5361 38.2506 79.3058 39.5131 79.8313C40.7756 80.3568 42.1316 80.6275 43.5015 80.6275C44.8713 80.6275 46.2273 80.3568 47.4898 79.8313C48.7523 79.3058 49.8958 78.5361 50.853 77.5674L55.8555 72.4934L63.033 72.5794C64.4023 72.5946 65.7608 72.339 67.0288 71.8279C68.2967 71.3167 69.4486 70.5602 70.4166 69.6027C71.3847 68.6453 72.1494 67.5063 72.6658 66.2527C73.1823 64.999 73.4401 63.656 73.424 62.3024L73.337 55.2182L78.47 50.2678C79.45 49.3216 80.2286 48.1913 80.7602 46.9433C81.2919 45.6953 81.5657 44.3549 81.5657 43.0008C81.5657 41.6467 81.2919 40.3063 80.7602 39.0583C80.2286 37.8103 79.45 36.68 78.47 35.7338L73.337 30.7888L73.424 23.6938C73.4393 22.3403 73.1808 20.9973 72.6637 19.7439C72.1466 18.4905 71.3813 17.3519 70.4128 16.395C69.4442 15.4381 68.292 14.6822 67.0237 14.1717C65.7555 13.6612 64.3968 13.4063 63.0275 13.4222L55.8609 13.5082Z" fill="url(#paint1_linear_198_4192)"/>
<defs>
<linearGradient id="paint0_linear_198_4192" x1="43.5" y1="29.5625" x2="43.5" y2="56.4375" gradientUnits="userSpaceOnUse">
<stop stop-color="#BE0F23"/>
<stop offset="1" stop-color="#E31A23"/>
</linearGradient>
<linearGradient id="paint1_linear_198_4192" x1="43.5015" y1="0.00512695" x2="43.5015" y2="85.9965" gradientUnits="userSpaceOnUse">
<stop stop-color="#BE0F23"/>
<stop offset="1" stop-color="#E31A23"/>
</linearGradient>
</defs>
</svg>
