<svg width="99" height="99" viewBox="0 0 99 99" fill="none" xmlns="http://www.w3.org/2000/svg">
<path d="M36.2588 38.8406C36.2523 38.9958 36.2775 39.1508 36.333 39.2959C36.3885 39.441 36.4731 39.5733 36.5817 39.6845C36.6902 39.7957 36.8203 39.8835 36.964 39.9426C37.1077 40.0017 37.262 40.0307 37.4173 40.0279H41.3832C42.0466 40.0279 42.5754 39.4847 42.6619 38.8262C43.0945 35.6727 45.2577 33.3749 49.113 33.3749C52.4107 33.3749 55.4295 35.0238 55.4295 38.9896C55.4295 42.0421 53.6317 43.4458 50.7907 45.5801C47.5555 47.9308 44.9933 50.6757 45.176 55.1318L45.1904 56.175C45.1955 56.4904 45.3243 56.7911 45.5491 57.0124C45.774 57.2336 46.0768 57.3576 46.3922 57.3575H50.2907C50.6095 57.3575 50.9152 57.2309 51.1405 57.0055C51.3659 56.7802 51.4925 56.4745 51.4925 56.1557V55.651C51.4925 52.1995 52.8049 51.1948 56.3477 48.5077C59.2752 46.282 62.3277 43.8111 62.3277 38.6243C62.3277 31.3607 56.1939 27.8516 49.4783 27.8516C43.3878 27.8516 36.7155 30.6877 36.2588 38.8406ZM43.7435 66.5439C43.7435 69.1061 45.7865 71.0001 48.5986 71.0001C51.5262 71.0001 53.5403 69.1061 53.5403 66.5439C53.5403 63.8904 51.5214 62.0252 48.5938 62.0252C45.7865 62.0252 43.7435 63.8904 43.7435 66.5439Z" fill="url(#paint0_linear_198_4207)"/>
<circle cx="49" cy="49" r="42.25" stroke="url(#paint1_linear_198_4207)" stroke-width="5.5"/>
<defs>
<linearGradient id="paint0_linear_198_4207" x1="49.2928" y1="27.8516" x2="49.2928" y2="71.0001" gradientUnits="userSpaceOnUse">
<stop stop-color="#BE0F23"/>
<stop offset="1" stop-color="#E31A23"/>
</linearGradient>
<linearGradient id="paint1_linear_198_4207" x1="49" y1="4" x2="49" y2="94" gradientUnits="userSpaceOnUse">
<stop stop-color="#BE0F23"/>
<stop offset="1" stop-color="#E31A23"/>
</linearGradient>
</defs>
</svg>
