<svg width="79" height="59" viewBox="0 0 79 59" fill="none" xmlns="http://www.w3.org/2000/svg">
<path fill-rule="evenodd" clip-rule="evenodd" d="M78.1115 4.69454C79.1855 3.6206 79.1855 1.8794 78.1115 0.805456C77.0376 -0.268485 75.2964 -0.268485 74.2224 0.805456L60.6958 14.3321L56.9215 9.29975C56.0102 8.08472 54.2865 7.83848 53.0715 8.74975C51.8565 9.66102 51.6102 11.3847 52.5215 12.5997L58.1982 20.1687L60.1007 22.7054L62.3428 20.4633L78.1115 4.69454ZM0.25 19.1495C0.25 17.6307 1.48122 16.3995 3 16.3995H40.845C42.3638 16.3995 43.595 17.6307 43.595 19.1495C43.595 20.6683 42.3638 21.8995 40.845 21.8995H3C1.48122 21.8995 0.25 20.6683 0.25 19.1495ZM0.25 45.641C0.25 44.1222 1.48122 42.891 3 42.891H40.845C42.3638 42.891 43.595 44.1222 43.595 45.641C43.595 47.1598 42.3638 48.391 40.845 48.391H3C1.48122 48.391 0.25 47.1598 0.25 45.641ZM78.1116 32.3429C79.1855 33.4169 79.1855 35.1581 78.1116 36.232L69.3333 45.0103L78.1116 53.7885C79.1855 54.8624 79.1855 56.6037 78.1116 57.6776C77.0377 58.7515 75.2964 58.7515 74.2225 57.6776L65.4443 48.8993L56.666 57.6776C55.5921 58.7515 53.8509 58.7515 52.7769 57.6776C51.703 56.6036 51.703 54.8624 52.7769 53.7885L61.5552 45.0103L52.7769 36.232C51.703 35.1581 51.703 33.4169 52.7769 32.3429C53.8509 31.269 55.5921 31.269 56.666 32.3429L65.4443 41.1212L74.2225 32.3429C75.2964 31.269 77.0377 31.269 78.1116 32.3429Z" fill="url(#paint0_linear_198_4229)"/>
<defs>
<linearGradient id="paint0_linear_198_4229" x1="39.5835" y1="0" x2="39.5835" y2="58.4831" gradientUnits="userSpaceOnUse">
<stop stop-color="#BE0F23"/>
<stop offset="1" stop-color="#E31A23"/>
</linearGradient>
</defs>
</svg>
