<svg width="82" height="82" viewBox="0 0 82 82" fill="none" xmlns="http://www.w3.org/2000/svg">
<path fill-rule="evenodd" clip-rule="evenodd" d="M37.2405 0C28.3109 0.816518 19.8951 4.53765 13.2821 10.5935L16.9966 14.6497C22.7226 9.40615 30.0095 6.18415 37.7414 5.47715L37.2405 0ZM81.7502 40.7518C81.7502 29.9428 77.4495 19.5773 69.7955 11.9355C62.1859 4.33799 51.8817 0.0512947 41.1271 0.00203002L41.1019 5.50197C50.4097 5.54461 59.3261 9.2547 65.9095 15.8277C72.5311 22.4387 76.2502 31.4043 76.2502 40.7518C76.2502 50.0994 72.5311 59.0649 65.9095 65.676C59.3011 72.2739 50.3419 75.9872 40.9959 76.002L41.0046 81.502C51.8034 81.4849 62.157 77.1945 69.7955 69.5681C77.4495 61.9263 81.7502 51.5609 81.7502 40.7518ZM21.5627 40.752L40.5002 22.002L59.4377 40.752H44.7085V57.4187H36.2919V40.752H21.5627ZM37.6005 81.6983C28.3843 80.9374 19.6959 77.0835 12.946 70.7623L16.7056 66.7478C22.55 72.2212 30.073 75.5582 38.053 76.217L37.6005 81.6983ZM0.0560519 43.483C0.639733 52.4979 4.18417 61.0677 10.1388 67.8613L14.2749 64.236C9.11896 58.3537 6.04995 50.9333 5.54456 43.1276L0.0560519 43.483ZM0.0273438 38.674C0.515396 29.4199 4.12381 20.604 10.2643 13.6634L14.3836 17.3079C9.0667 23.3174 5.9423 30.9508 5.51971 38.9637L0.0273438 38.674Z" fill="url(#paint0_linear_198_4200)"/>
<defs>
<linearGradient id="paint0_linear_198_4200" x1="40.8888" y1="0" x2="40.8888" y2="81.6982" gradientUnits="userSpaceOnUse">
<stop stop-color="#BE0F23"/>
<stop offset="1" stop-color="#E31A23"/>
</linearGradient>
</defs>
</svg>
