<svg width="104" height="53" viewBox="0 0 104 53" fill="none" xmlns="http://www.w3.org/2000/svg">
<path fill-rule="evenodd" clip-rule="evenodd" d="M87 5.5H18C13.8579 5.5 10.5 8.85786 10.5 13V40C10.5 44.1421 13.8579 47.5 18 47.5H29.3154C32.462 47.5 35.7155 45.1791 39.9978 41.1217C42.8744 38.3962 47.0291 36 52.5 36C57.9709 36 62.1256 38.3962 65.0022 41.1217C69.2845 45.1791 72.538 47.5 75.6846 47.5H87C91.1421 47.5 94.5 44.1421 94.5 40V13C94.5 8.85787 91.1421 5.5 87 5.5ZM18 0C10.8203 0 5 5.8203 5 13V16H3.5H0V21.5V28.5V34H3.5H5V40C5 47.1797 10.8203 53 18 53H29.3154C34.9423 53 39.6961 48.9843 43.7807 45.1142C45.9021 43.1041 48.7652 41.5 52.5 41.5C56.2348 41.5 59.0979 43.1041 61.2193 45.1142C65.3039 48.9843 70.0577 53 75.6846 53H87C94.1797 53 100 47.1797 100 40V34H100.5H104V28.5V21.5V16H100.5H100V13C100 5.8203 94.1797 0 87 0H18Z" fill="url(#paint0_linear_198_4239)"/>
<defs>
<linearGradient id="paint0_linear_198_4239" x1="52" y1="0" x2="52" y2="53" gradientUnits="userSpaceOnUse">
<stop stop-color="#BE0F23"/>
<stop offset="1" stop-color="#E31A23"/>
</linearGradient>
</defs>
</svg>
