<svg width="449" height="166" viewBox="0 0 449 166" fill="none" xmlns="http://www.w3.org/2000/svg">
<path d="M421.267 47.5063L441.346 61.6328L421.267 0.63855L401.188 61.6328L421.267 47.5063Z" fill="url(#paint0_linear_198_4154)"/>
<path d="M23.2685 18.7573H3.61431C3.61431 18.7573 4.13402 18.8518 2.0552 18.8518C-0.0236112 18.8518 1.16656e-05 20.9306 1.16656e-05 20.9306V161.581L0.0945032 163.14C0.0945032 163.14 0.236241 165.196 2.14969 165.196C4.06315 165.196 21.7803 165.196 21.7803 165.196C21.7803 165.196 21.5441 165.101 23.3394 165.101C25.1348 165.101 25.3946 163.046 25.3946 163.046V22.3952C25.3946 22.3952 25.3946 23.1039 25.3946 20.8361C25.3946 18.5683 23.2685 18.7573 23.2685 18.7573Z" fill="url(#paint1_linear_198_4154)"/>
<path d="M139.186 18.7573C137.414 18.7573 62.8838 18.7573 62.8838 18.7573L61.3011 18.8518C61.3011 18.8518 59.2695 18.8754 59.2695 20.9543C59.2695 23.0094 59.2695 161.581 59.2695 161.581C59.2695 161.581 59.2695 165.196 62.3641 165.196C64.3957 165.196 134.249 165.196 137.721 165.196C141.643 165.196 141.335 162.054 141.335 162.054V139.777H84.6877V104.65C84.6877 104.65 121.138 104.65 125.555 104.65C129.973 104.65 129.618 101.225 129.618 101.225V82.9407C129.618 82.9407 129.217 79.3264 126.335 79.3264C123.453 79.3264 84.6641 79.3264 84.6641 79.3264V44.1992H141.312V22.3952L141.217 20.8361C141.241 20.8361 140.957 18.7573 139.186 18.7573Z" fill="url(#paint2_linear_198_4154)"/>
<path d="M259.876 36.6162C245.655 24.8284 229.544 18.8754 212.016 18.8754C212.016 18.8754 176.652 18.8754 174.29 18.8754C171.928 18.8754 171.928 21.2141 171.928 21.2141V162.857C171.928 162.857 171.999 165.196 174.29 165.196C176.581 165.196 212.866 165.196 212.866 165.196C221.441 165.196 230.3 163.447 239.135 160.022C246.954 157.093 254.962 151.919 263.183 144.526C277.876 129.43 285.318 111.95 285.318 92.5552V91.5158C285.318 75.9719 280.357 61.3257 270.648 48.1678C269.018 45.6638 265.545 41.955 259.876 36.6162ZM248.442 123.029C238.332 134.297 225.953 139.754 210.598 139.754H197.37V44.27H208.614C215.89 44.27 221.796 44.9787 226.095 46.3488C231.15 48.1206 234.835 49.845 237.009 51.4041L237.552 51.7112C239.206 52.4908 242.371 54.7113 248.112 60.7115C256.025 69.9717 260.017 80.5075 260.017 92.0355C259.994 103.422 256.096 113.863 248.442 123.029Z" fill="url(#paint3_linear_198_4154)"/>
<path d="M446.52 82.043C445.079 82.043 415.811 82.0902 394.881 82.1139L386.707 107.792C399.629 107.792 420.039 107.792 420.039 107.792C418.055 113.485 414.819 118.989 410.425 124.186C400.881 134.415 390.062 139.399 377.376 139.399C366.297 139.399 356.588 135.643 347.824 128.084C336.91 117.525 331.619 105.453 331.619 91.1378C331.619 80.1768 335.162 69.83 342.036 60.5462C347.635 53.8609 353.753 49.1363 360.486 46.278V46.3252C362.966 45.2858 365.541 44.459 368.187 43.8684C368.518 43.7976 368.848 43.7267 369.203 43.6558C369.959 43.5141 370.715 43.4196 371.494 43.3015C372.604 43.1597 373.738 43.018 374.872 42.9708C375.746 42.9235 376.644 42.829 377.542 42.829C379.786 42.829 381.959 43.0416 384.109 43.3724L391.928 18.8282C387.581 17.9069 383.069 17.3872 378.463 17.3163V17.2691L374.801 17.3872C374.045 17.4108 373.313 17.4817 372.557 17.5289C372.156 17.5525 371.754 17.5762 371.352 17.6234C358.927 18.6392 347.257 22.9386 336.65 30.5215C335.422 31.2774 333.06 33.1909 329.587 36.1674L329.398 36.3564C313.902 51.853 306.035 70.2316 306.035 90.9961V91.374C306.035 112.351 313.972 130.848 329.753 146.439C343.879 158.888 359.848 165.196 377.211 165.196C384.888 165.196 392.802 163.802 400.787 161.014C416.189 155.109 428.331 145.258 436.788 131.793C441.394 124.942 444.82 116.225 446.993 106.044C447.82 102.689 448.457 96.1459 448.93 86.0353L449.001 84.4762C448.954 84.4762 448.788 82.043 446.52 82.043Z" fill="url(#paint4_linear_198_4154)"/>
<defs>
<linearGradient id="paint0_linear_198_4154" x1="421.266" y1="19.9254" x2="421.266" y2="180.154" gradientUnits="userSpaceOnUse">
<stop stop-color="#E31A23"/>
<stop offset="1" stop-color="#B70D20"/>
</linearGradient>
<linearGradient id="paint1_linear_198_4154" x1="12.7103" y1="19.9255" x2="12.7103" y2="180.154" gradientUnits="userSpaceOnUse">
<stop stop-color="#E31A23"/>
<stop offset="1" stop-color="#B70D20"/>
</linearGradient>
<linearGradient id="paint2_linear_198_4154" x1="100.315" y1="19.9255" x2="100.315" y2="180.154" gradientUnits="userSpaceOnUse">
<stop stop-color="#E31A23"/>
<stop offset="1" stop-color="#B70D20"/>
</linearGradient>
<linearGradient id="paint3_linear_198_4154" x1="228.633" y1="19.9255" x2="228.633" y2="180.154" gradientUnits="userSpaceOnUse">
<stop stop-color="#E31A23"/>
<stop offset="1" stop-color="#B70D20"/>
</linearGradient>
<linearGradient id="paint4_linear_198_4154" x1="377.49" y1="2.20689" x2="377.49" y2="209.495" gradientUnits="userSpaceOnUse">
<stop stop-color="#E31A23"/>
<stop offset="1" stop-color="#B70D20"/>
</linearGradient>
</defs>
</svg>
